<?xml version="1.0" standalone="no"?>
<!DOCTYPE svg PUBLIC "-//W3C//DTD SVG 20010904//EN"
 "http://www.w3.org/TR/2001/REC-SVG-20010904/DTD/svg10.dtd">
<svg version="1.0" xmlns="http://www.w3.org/2000/svg"
 width="1120.000000pt" height="1120.000000pt" viewBox="0 0 1120.000000 1120.000000"
 preserveAspectRatio="xMidYMid meet">
<metadata>
Created by potrace 1.11, written by Peter Selinger 2001-2013
</metadata>
<g transform="translate(0.000000,1120.000000) scale(0.100000,-0.100000)"
fill="#000000" stroke="none">
<path d="M5547 11194 c-1 -1 -54 -5 -117 -8 -63 -3 -124 -8 -135 -10 -11 -2
-47 -7 -80 -11 -90 -11 -92 -12 -195 -33 -52 -11 -107 -25 -121 -31 -15 -5
-29 -7 -32 -4 -3 3 -12 1 -19 -3 -7 -5 -17 -9 -23 -10 -24 -4 -255 -84 -300
-104 -81 -36 -306 -148 -355 -177 -239 -139 -516 -370 -696 -579 -27 -31 -54
-62 -59 -68 -28 -28 -155 -206 -155 -215 0 -6 -4 -11 -10 -11 -5 0 -10 -6 -10
-14 0 -8 -4 -16 -8 -18 -26 -10 -190 -323 -251 -478 -66 -166 -129 -374 -146
-480 -3 -19 -8 -42 -10 -50 -2 -8 -7 -33 -10 -55 -3 -23 -7 -51 -10 -64 -20
-106 -37 -474 -22 -498 4 -6 3 -14 -3 -18 -6 -4 -8 -10 -5 -14 2 -5 7 -46 10
-92 4 -46 8 -95 11 -109 3 -14 7 -41 9 -60 5 -40 17 -118 22 -140 2 -8 5 -28
8 -45 2 -16 20 -86 39 -155 l34 -125 -84 -85 c-46 -47 -98 -105 -116 -130 -18
-25 -36 -46 -40 -48 -5 -2 -8 -10 -8 -18 0 -8 -3 -14 -8 -14 -4 0 -23 -30 -42
-67 -19 -38 -39 -71 -43 -74 -5 -3 -8 -8 -6 -10 1 -2 -5 -20 -14 -39 -18 -39
-67 -183 -73 -215 -2 -11 -6 -31 -9 -45 -12 -57 -15 -78 -21 -155 -8 -98 -8
-141 0 -226 6 -65 8 -76 23 -149 4 -19 8 -37 8 -40 4 -20 38 -129 45 -145 5
-11 23 -51 40 -90 114 -257 323 -474 593 -615 64 -34 146 -68 192 -81 17 -4
55 -14 85 -23 30 -8 74 -18 97 -21 23 -3 57 -8 75 -11 49 -6 237 -6 283 1 116
18 169 29 255 57 52 17 104 37 115 44 11 8 25 14 31 14 7 0 43 18 81 40 l68
39 50 -48 c28 -26 75 -67 105 -92 30 -24 57 -47 58 -51 2 -5 7 -8 12 -8 5 0
37 -19 72 -42 69 -46 250 -138 271 -138 7 0 17 -4 23 -9 5 -5 36 -17 69 -27
33 -9 65 -19 70 -20 17 -6 145 -34 173 -38 117 -20 333 -26 442 -12 162 20
314 60 445 116 64 27 178 83 185 90 4 5 31 22 101 65 39 24 134 100 195 157
36 34 69 57 72 52 11 -16 161 -90 239 -117 112 -40 208 -63 313 -73 47 -5 238
-4 272 0 90 13 170 28 198 38 8 3 44 16 80 28 70 23 106 37 130 51 8 5 29 15
46 23 17 7 48 25 70 38 21 14 43 25 48 26 5 0 12 4 15 9 3 5 35 31 69 57 139
106 272 266 356 428 39 75 101 236 112 291 2 12 8 47 14 77 52 292 7 576 -133
840 -71 134 -146 231 -270 350 l-47 45 16 50 c8 28 17 57 19 65 1 8 8 33 13
55 14 50 25 104 46 215 40 213 49 579 21 790 -3 19 -8 55 -11 80 -17 146 -77
383 -140 558 -182 502 -512 953 -934 1277 -36 28 -67 52 -70 55 -6 7 -122 83
-135 90 -5 3 -29 17 -52 33 -24 15 -47 27 -52 27 -5 0 -11 3 -13 8 -1 4 -43
27 -93 52 -49 25 -91 48 -93 53 -2 4 -10 7 -18 7 -8 0 -22 5 -32 10 -14 8
-106 50 -122 55 -3 1 -12 4 -20 8 -8 3 -51 18 -95 32 -44 15 -87 30 -95 33
-17 6 -13 5 -110 31 -41 11 -90 23 -109 26 -19 3 -37 8 -41 10 -3 2 -29 7 -56
11 -27 3 -58 8 -69 10 -11 3 -38 7 -60 10 -22 2 -54 7 -72 10 -52 8 -360 23
-366 18z m323 -577 c14 -2 45 -7 70 -11 25 -4 59 -9 75 -13 17 -3 39 -7 50 -9
65 -10 289 -76 350 -103 23 -10 57 -24 65 -25 14 -3 229 -112 264 -134 127
-80 157 -100 216 -145 141 -105 279 -239 401 -387 46 -56 149 -197 149 -204 0
-2 18 -34 40 -70 22 -36 40 -70 40 -75 0 -5 7 -14 15 -21 8 -6 14 -15 13 -18
-1 -4 16 -43 37 -87 36 -77 109 -271 119 -317 3 -13 10 -41 16 -63 14 -53 25
-102 35 -155 3 -14 8 -38 11 -55 7 -32 9 -52 19 -190 11 -147 6 -375 -10 -456
-3 -13 -7 -37 -9 -54 -19 -130 -54 -269 -101 -400 -20 -55 -41 -113 -47 -130
-6 -16 -35 -77 -64 -134 -29 -57 -51 -107 -49 -111 2 -4 30 -12 61 -19 209
-47 404 -209 497 -413 169 -370 12 -800 -358 -977 -238 -115 -513 -93 -737 58
-48 33 -178 157 -178 171 0 5 -6 15 -14 22 -15 15 -76 129 -80 150 -2 7 -8 25
-14 39 -5 14 -13 43 -16 65 -4 21 -10 42 -14 46 -14 14 -87 -36 -90 -62 -6
-45 -43 -164 -68 -218 -13 -29 -24 -55 -24 -57 0 -11 -68 -116 -114 -175 -60
-78 -93 -111 -171 -172 -33 -27 -64 -51 -70 -56 -24 -19 -165 -91 -217 -110
-306 -114 -657 -78 -927 95 -30 19 -61 41 -68 49 -8 8 -18 14 -22 14 -11 0
-161 148 -161 158 0 5 -7 15 -15 22 -65 54 -186 309 -202 426 -4 33 -13 50
-32 63 -51 37 -63 32 -77 -32 -8 -31 -21 -71 -29 -87 -8 -16 -15 -31 -14 -32
3 -5 -44 -93 -71 -133 -40 -57 -128 -146 -184 -184 -89 -61 -192 -103 -311
-126 -38 -7 -168 -7 -220 0 -113 15 -249 73 -338 143 -65 51 -139 122 -128
122 3 0 1 4 -5 8 -35 24 -111 169 -138 262 -13 46 -28 145 -29 185 0 63 19
183 39 244 27 81 83 189 109 211 8 7 15 16 15 20 0 12 60 72 123 123 66 54
202 122 279 139 29 6 56 11 61 10 13 -4 8 9 -58 143 -36 73 -68 141 -70 151
-3 11 -18 57 -35 104 -34 94 -87 305 -94 372 -3 24 -5 43 -6 43 -7 0 -23 235
-22 334 1 111 14 286 22 286 1 0 3 16 5 35 11 123 94 428 132 488 8 13 12 26
10 29 -9 8 138 287 202 383 56 84 82 119 141 194 91 114 238 256 375 360 44
33 82 63 85 66 10 13 157 100 168 100 5 0 12 4 14 8 3 8 202 112 213 112 3 0
21 6 40 14 102 43 287 100 360 112 22 3 43 8 48 11 9 6 51 13 172 29 28 3 51
7 53 9 5 5 465 -2 492 -8z"/>
<path d="M4355 5011 c-11 -10 -188 -69 -225 -75 -14 -3 -25 -5 -25 -6 0 -2
-24 -7 -69 -15 -21 -4 -48 -9 -60 -11 -22 -4 -171 -15 -241 -18 -39 -1 -40 -2
-41 -40 -1 -44 6 -70 66 -236 22 -63 54 -153 71 -200 16 -47 32 -92 36 -100 3
-8 7 -19 9 -25 1 -5 23 -66 48 -135 24 -69 63 -177 85 -240 23 -63 44 -122 48
-130 3 -8 8 -23 10 -33 1 -10 10 -31 18 -47 8 -16 15 -37 15 -48 0 -10 4 -22
9 -27 4 -6 22 -50 39 -100 16 -49 37 -108 45 -130 9 -22 66 -182 127 -355 61
-173 120 -337 130 -365 17 -47 33 -92 111 -312 17 -49 34 -97 39 -108 5 -11
24 -65 43 -120 20 -55 54 -152 77 -215 23 -63 45 -126 50 -140 4 -14 24 -68
43 -122 20 -53 33 -99 30 -102 -4 -3 -1 -6 5 -6 7 0 11 -3 10 -8 -2 -6 14 -55
39 -122 4 -8 7 -17 8 -20 1 -3 4 -12 7 -20 23 -63 42 -117 45 -125 2 -11 45
-131 82 -230 13 -33 25 -69 28 -80 2 -11 9 -29 14 -40 5 -11 25 -65 44 -120
19 -55 49 -143 68 -195 19 -52 60 -167 91 -255 64 -179 99 -241 155 -278 99
-66 211 -68 311 -6 57 35 107 104 120 164 1 6 6 16 12 22 6 7 7 13 4 13 -4 0
-1 10 6 23 6 12 13 27 14 32 1 6 26 75 54 155 29 80 70 196 92 259 22 63 44
126 50 140 6 14 12 31 13 37 3 10 79 223 92 254 3 8 7 20 8 25 2 6 12 35 23
65 11 30 34 96 52 145 17 50 34 97 37 105 4 8 5 18 5 23 -1 4 3 7 10 7 6 0 9
3 5 6 -3 3 8 43 25 88 17 44 36 99 43 121 8 22 61 173 120 335 58 162 108 302
110 310 4 14 20 60 120 335 20 55 38 107 40 115 2 8 15 47 30 85 15 39 36 97
47 130 19 59 22 68 48 130 6 17 20 55 30 85 16 50 72 208 148 418 17 45 27 82
24 82 -4 0 -2 4 3 8 6 4 31 68 57 142 69 201 119 342 131 370 5 14 11 30 13
35 2 9 54 157 134 379 17 49 34 113 37 143 l6 53 -89 1 c-49 0 -105 2 -124 5
-55 7 -102 13 -136 18 -36 5 -152 34 -174 43 -8 3 -19 7 -25 8 -5 2 -41 15
-79 29 l-69 26 -48 -32 c-46 -32 -47 -33 -28 -51 10 -10 19 -21 19 -25 0 -4
-69 -76 -153 -159 l-153 -153 -64 65 c-57 57 -67 64 -94 59 -17 -3 -35 -9 -41
-13 -5 -4 -29 -13 -53 -20 -53 -15 -51 -18 58 -125 l81 -80 -156 -154 c-85
-84 -159 -151 -164 -148 -7 5 -260 259 -300 301 -2 3 21 30 52 60 32 30 57 57
57 60 0 3 -30 2 -67 -2 -80 -8 -256 -7 -330 1 -29 3 -53 3 -53 0 0 -3 25 -31
55 -62 l55 -56 -155 -155 -155 -155 -157 156 -156 156 92 92 c51 51 91 93 89
95 -2 1 -39 14 -82 29 -90 30 -78 34 -164 -57 l-46 -48 -157 157 c-155 154
-157 158 -138 175 20 17 19 18 -27 53 -48 37 -63 42 -79 27z m9 -246 c14 -14
22 -25 18 -25 -4 0 -1 -4 7 -9 7 -5 67 -62 132 -126 l118 -118 -87 -88 -87
-89 -14 32 c-12 29 -47 127 -126 351 -33 94 -16 127 39 72z m2536 10 c9 -10 9
-15 1 -15 -6 0 -10 -3 -9 -7 0 -5 -2 -17 -6 -28 -4 -11 -12 -31 -16 -45 -4
-14 -12 -34 -16 -45 -4 -11 -8 -22 -9 -25 -1 -3 -4 -12 -8 -20 -3 -8 -20 -58
-38 -110 -18 -52 -39 -110 -46 -128 l-14 -34 -42 39 c-23 21 -62 59 -85 85
l-44 47 149 150 c81 82 153 150 159 150 6 1 17 -6 24 -14z m-1990 -559 c82
-82 150 -152 150 -155 0 -3 -69 -74 -153 -158 l-152 -152 -25 23 c-64 57 -129
136 -138 167 -6 19 -24 72 -40 117 l-30 84 111 113 c62 62 115 113 119 112 4
-1 75 -69 158 -151z m846 4 c82 -83 151 -153 153 -155 2 -3 -65 -75 -150 -160
l-154 -154 -152 152 c-84 83 -153 156 -153 160 0 8 295 307 303 307 2 0 71
-68 153 -150z m766 83 c35 -33 85 -83 111 -110 l48 -50 -22 -54 c-11 -30 -23
-61 -24 -69 -2 -8 -4 -16 -5 -17 -2 -2 -3 -6 -4 -10 -17 -69 -48 -120 -107
-178 l-66 -64 -156 156 -155 156 152 152 c83 85 154 153 158 152 3 -1 35 -30
70 -64z m-337 -512 l155 -155 -155 -155 -155 -155 -157 156 -156 156 154 154
c85 85 155 155 156 154 1 -1 72 -70 158 -155z m-845 -5 l150 -149 -155 -155
-155 -156 -92 89 c-51 50 -122 120 -157 157 l-63 67 148 150 c82 83 155 149
161 148 7 -1 80 -69 163 -151z m-432 -418 c84 -83 152 -154 152 -156 0 -13
-145 -151 -151 -144 -7 6 -31 69 -44 112 -3 8 -18 51 -34 95 -15 44 -31 89
-35 100 -4 11 -12 28 -17 37 -5 10 -9 27 -9 37 0 11 -4 23 -10 26 -9 6 -15 45
-7 45 2 0 72 -68 155 -152z m852 -2 c82 -82 150 -152 150 -155 0 -3 -69 -75
-153 -158 l-153 -153 -156 157 -156 156 155 154 c85 85 156 153 158 151 2 -2
72 -70 155 -152z m624 -48 c-41 -112 -74 -207 -74 -213 0 -5 -5 -17 -10 -25
-8 -12 -23 -2 -80 55 -38 38 -70 73 -70 78 0 8 296 307 304 307 2 0 -30 -91
-70 -202z m-1045 -380 l151 -152 -155 -155 -155 -155 -49 48 c-45 44 -54 61
-106 207 l-57 158 98 100 c55 54 104 100 110 100 6 1 79 -67 163 -151z m792
57 c51 -53 96 -98 97 -100 4 -4 -14 -65 -33 -110 -23 -54 -75 -201 -75 -211 0
-10 -89 -98 -95 -93 -18 17 -239 236 -269 268 l-39 40 149 150 c82 82 154 150
160 150 5 1 53 -42 105 -94z m-395 -454 c71 -71 140 -141 153 -155 l24 -26
-150 -150 c-82 -82 -154 -150 -159 -150 -11 0 -304 292 -304 303 0 9 291 305
301 306 3 1 64 -57 135 -128z m-379 -473 l132 -131 -62 -64 c-34 -34 -65 -63
-69 -63 -4 0 -11 15 -17 33 -5 17 -24 70 -41 117 -18 47 -33 90 -34 95 -2 6
-6 18 -10 27 -4 9 -9 22 -10 30 -1 7 -10 30 -19 52 -19 42 -21 53 -9 43 4 -4
66 -66 139 -139z m573 -25 c-28 -81 -59 -167 -68 -191 l-15 -43 -63 62 c-37
36 -60 67 -56 74 12 19 247 252 251 249 2 -2 -20 -70 -49 -151z m-235 -312
c83 -83 95 -103 76 -139 -5 -9 -31 -78 -56 -152 -26 -74 -54 -151 -62 -170 -8
-20 -15 -42 -17 -50 -2 -8 -8 -28 -14 -43 -7 -16 -12 -33 -12 -38 0 -28 -19
-1 -37 54 -19 54 -56 160 -124 347 -37 99 -40 90 57 188 49 50 92 89 96 89 4
-1 46 -40 93 -86z"/>
</g>
</svg>
